<?xml version="1.0" encoding="us-ascii" standalone="no"?><svg xmlns="http://www.w3.org/2000/svg" xmlns:xlink="http://www.w3.org/1999/xlink" contentStyleType="text/css" height="1195px" preserveAspectRatio="none" style="width:1344px;height:1195px;background:#FFFFFF;" version="1.1" viewBox="0 0 1344 1195" width="1344px" zoomAndPan="magnify"><defs/><g><!--cluster spielmacher--><g id="cluster_spielmacher"><path d="M8.5,6 L105.5,6 A3.75,3.75 0 0 1 108,8.5 L115,28.2969 L1334.5,28.2969 A2.5,2.5 0 0 1 1337,30.7969 L1337,1185.5 A2.5,2.5 0 0 1 1334.5,1188 L8.5,1188 A2.5,2.5 0 0 1 6,1185.5 L6,8.5 A2.5,2.5 0 0 1 8.5,6 " fill="none" style="stroke:#000000;stroke-width:1.5;"/><line style="stroke:#000000;stroke-width:1.5;" x1="6" x2="115" y1="28.2969" y2="28.2969"/><text fill="#000000" font-family="sans-serif" font-size="14" font-weight="bold" lengthAdjust="spacing" textLength="96" x="10" y="20.9951">spielmacher</text></g><!--class Player--><g id="elem_Player"><rect codeLine="3" fill="#F1F1F1" height="292.4531" id="Player" rx="2.5" ry="2.5" style="stroke:#181818;stroke-width:0.5;" width="366" x="614" y="707"/><ellipse cx="772.25" cy="723" fill="#ADD1B2" rx="11" ry="11" style="stroke:#181818;stroke-width:1.0;"/><path d="M775.2188,728.6406 Q774.6406,728.9375 774,729.0781 Q773.3594,729.2344 772.6563,729.2344 Q770.1563,729.2344 768.8281,727.5938 Q767.5156,725.9375 767.5156,722.8125 Q767.5156,719.6875 768.8281,718.0313 Q770.1563,716.375 772.6563,716.375 Q773.3594,716.375 774,716.5313 Q774.6563,716.6875 775.2188,716.9844 L775.2188,719.7031 Q774.5938,719.125 774,718.8594 Q773.4063,718.5781 772.7813,718.5781 Q771.4375,718.5781 770.75,719.6563 Q770.0625,720.7188 770.0625,722.8125 Q770.0625,724.9063 770.75,725.9844 Q771.4375,727.0469 772.7813,727.0469 Q773.4063,727.0469 774,726.7813 Q774.5938,726.5 775.2188,725.9219 L775.2188,728.6406 Z " fill="#000000"/><text fill="#000000" font-family="sans-serif" font-size="14" lengthAdjust="spacing" textLength="41" x="792.75" y="727.8467">Player</text><line style="stroke:#181818;stroke-width:0.5;" x1="615" x2="979" y1="739" y2="739"/><ellipse cx="625" cy="752.6484" fill="none" rx="3" ry="3" style="stroke:#038048;stroke-width:1.0;"/><text fill="#000000" font-family="sans-serif" font-size="14" lengthAdjust="spacing" textLength="113" x="634" y="755.9951">round_score: int</text><ellipse cx="625" cy="768.9453" fill="none" rx="3" ry="3" style="stroke:#038048;stroke-width:1.0;"/><text fill="#000000" font-family="sans-serif" font-size="14" lengthAdjust="spacing" textLength="102" x="634" y="772.292">total_score: int</text><ellipse cx="625" cy="785.2422" fill="none" rx="3" ry="3" style="stroke:#038048;stroke-width:1.0;"/><text fill="#000000" font-family="sans-serif" font-size="14" lengthAdjust="spacing" textLength="111" x="634" y="788.5889">num_games: int</text><ellipse cx="625" cy="801.5391" fill="none" rx="3" ry="3" style="stroke:#038048;stroke-width:1.0;"/><text fill="#000000" font-family="sans-serif" font-size="14" lengthAdjust="spacing" textLength="184" x="634" y="804.8857">move_history: MoveHistory</text><ellipse cx="625" cy="817.8359" fill="none" rx="3" ry="3" style="stroke:#038048;stroke-width:1.0;"/><text fill="#000000" font-family="sans-serif" font-size="14" lengthAdjust="spacing" textLength="188" x="634" y="821.1826">score_history: ScoreHistory</text><ellipse cx="625" cy="834.1328" fill="none" rx="3" ry="3" style="stroke:#038048;stroke-width:1.0;"/><text fill="#000000" font-family="sans-serif" font-size="14" lengthAdjust="spacing" textLength="66" x="634" y="837.4795">name: str</text><ellipse cx="625" cy="850.4297" fill="none" rx="3" ry="3" style="stroke:#038048;stroke-width:1.0;"/><text fill="#000000" font-family="sans-serif" font-size="14" lengthAdjust="spacing" textLength="223" x="634" y="853.7764">current_move_history: list[Move]</text><ellipse cx="625" cy="866.7266" fill="none" rx="3" ry="3" style="stroke:#038048;stroke-width:1.0;"/><text fill="#000000" font-family="sans-serif" font-size="14" lengthAdjust="spacing" textLength="204" x="634" y="870.0732">current_score_history: list[int]</text><ellipse cx="625" cy="883.0234" fill="none" rx="3" ry="3" style="stroke:#038048;stroke-width:1.0;"/><text fill="#000000" font-family="sans-serif" font-size="14" lengthAdjust="spacing" textLength="115" x="634" y="886.3701">last_move: Move</text><line style="stroke:#181818;stroke-width:0.5;" x1="615" x2="979" y1="893.6719" y2="893.6719"/><ellipse cx="625" cy="907.3203" fill="#84BE84" rx="3" ry="3" style="stroke:#038048;stroke-width:1.0;"/><text fill="#000000" font-family="sans-serif" font-size="14" lengthAdjust="spacing" textLength="83" x="634" y="910.667">reset(): void</text><ellipse cx="625" cy="923.6172" fill="#84BE84" rx="3" ry="3" style="stroke:#038048;stroke-width:1.0;"/><text fill="#000000" font-family="sans-serif" font-size="14" lengthAdjust="spacing" textLength="278" x="634" y="926.9639">update_move_history(move: Move): void</text><ellipse cx="625" cy="939.9141" fill="#84BE84" rx="3" ry="3" style="stroke:#038048;stroke-width:1.0;"/><text fill="#000000" font-family="sans-serif" font-size="14" lengthAdjust="spacing" textLength="259" x="634" y="943.2607">update_round_score(points: int): void</text><ellipse cx="625" cy="956.2109" fill="#84BE84" rx="3" ry="3" style="stroke:#038048;stroke-width:1.0;"/><text fill="#000000" font-family="sans-serif" font-size="14" lengthAdjust="spacing" textLength="209" x="634" y="959.5576">prepare_for_next_game(): void</text><ellipse cx="625" cy="972.5078" fill="#84BE84" rx="3" ry="3" style="stroke:#038048;stroke-width:1.0;"/><text fill="#000000" font-family="sans-serif" font-size="14" lengthAdjust="spacing" textLength="131" x="634" y="975.8545">print_moves(): void</text><ellipse cx="625" cy="988.8047" fill="#84BE84" rx="3" ry="3" style="stroke:#038048;stroke-width:1.0;"/><text fill="#000000" font-family="sans-serif" font-size="14" font-style="italic" lengthAdjust="spacing" textLength="340" x="634" y="992.1514">select_move(opponent_history: list[Move]): Move</text></g><!--class CooperativePlayer--><g id="elem_CooperativePlayer"><rect codeLine="22" fill="#F1F1F1" height="64.2969" id="CooperativePlayer" rx="2.5" ry="2.5" style="stroke:#181818;stroke-width:0.5;" width="365" x="21.5" y="1083.5"/><ellipse cx="137.75" cy="1099.5" fill="#ADD1B2" rx="11" ry="11" style="stroke:#181818;stroke-width:1.0;"/><path d="M140.7188,1105.1406 Q140.1406,1105.4375 139.5,1105.5781 Q138.8594,1105.7344 138.1563,1105.7344 Q135.6563,1105.7344 134.3281,1104.0938 Q133.0156,1102.4375 133.0156,1099.3125 Q133.0156,1096.1875 134.3281,1094.5313 Q135.6563,1092.875 138.1563,1092.875 Q138.8594,1092.875 139.5,1093.0313 Q140.1563,1093.1875 140.7188,1093.4844 L140.7188,1096.2031 Q140.0938,1095.625 139.5,1095.3594 Q138.9063,1095.0781 138.2813,1095.0781 Q136.9375,1095.0781 136.25,1096.1563 Q135.5625,1097.2188 135.5625,1099.3125 Q135.5625,1101.4063 136.25,1102.4844 Q136.9375,1103.5469 138.2813,1103.5469 Q138.9063,1103.5469 139.5,1103.2813 Q140.0938,1103 140.7188,1102.4219 L140.7188,1105.1406 Z " fill="#000000"/><text fill="#000000" font-family="sans-serif" font-size="14" lengthAdjust="spacing" textLength="124" x="158.25" y="1104.3467">CooperativePlayer</text><line style="stroke:#181818;stroke-width:0.5;" x1="22.5" x2="385.5" y1="1115.5" y2="1115.5"/><line style="stroke:#181818;stroke-width:0.5;" x1="22.5" x2="385.5" y1="1123.5" y2="1123.5"/><ellipse cx="32.5" cy="1137.1484" fill="#84BE84" rx="3" ry="3" style="stroke:#038048;stroke-width:1.0;"/><text fill="#000000" font-family="sans-serif" font-size="14" lengthAdjust="spacing" textLength="339" x="41.5" y="1140.4951">select_move(opponent_history: list[Move]): Move</text></g><!--class DetectivePlayer--><g id="elem_DetectivePlayer"><rect codeLine="38" fill="#F1F1F1" height="113.1875" id="DetectivePlayer" rx="2.5" ry="2.5" style="stroke:#181818;stroke-width:0.5;" width="365" x="421.5" y="1059"/><ellipse cx="546.25" cy="1075" fill="#ADD1B2" rx="11" ry="11" style="stroke:#181818;stroke-width:1.0;"/><path d="M549.2188,1080.6406 Q548.6406,1080.9375 548,1081.0781 Q547.3594,1081.2344 546.6563,1081.2344 Q544.1563,1081.2344 542.8281,1079.5938 Q541.5156,1077.9375 541.5156,1074.8125 Q541.5156,1071.6875 542.8281,1070.0313 Q544.1563,1068.375 546.6563,1068.375 Q547.3594,1068.375 548,1068.5313 Q548.6563,1068.6875 549.2188,1068.9844 L549.2188,1071.7031 Q548.5938,1071.125 548,1070.8594 Q547.4063,1070.5781 546.7813,1070.5781 Q545.4375,1070.5781 544.75,1071.6563 Q544.0625,1072.7188 544.0625,1074.8125 Q544.0625,1076.9063 544.75,1077.9844 Q545.4375,1079.0469 546.7813,1079.0469 Q547.4063,1079.0469 548,1078.7813 Q548.5938,1078.5 549.2188,1077.9219 L549.2188,1080.6406 Z " fill="#000000"/><text fill="#000000" font-family="sans-serif" font-size="14" lengthAdjust="spacing" textLength="107" x="566.75" y="1079.8467">DetectivePlayer</text><line style="stroke:#181818;stroke-width:0.5;" x1="422.5" x2="785.5" y1="1091" y2="1091"/><rect fill="none" height="6" style="stroke:#C82930;stroke-width:1.0;" width="6" x="429.5" y="1101.6484"/><text fill="#000000" font-family="sans-serif" font-size="14" lengthAdjust="spacing" textLength="83" x="441.5" y="1107.9951">defect: bool</text><line style="stroke:#181818;stroke-width:0.5;" x1="422.5" x2="785.5" y1="1115.2969" y2="1115.2969"/><ellipse cx="432.5" cy="1128.9453" fill="#84BE84" rx="3" ry="3" style="stroke:#038048;stroke-width:1.0;"/><text fill="#000000" font-family="sans-serif" font-size="14" lengthAdjust="spacing" textLength="83" x="441.5" y="1132.292">reset(): void</text><ellipse cx="432.5" cy="1145.2422" fill="#84BE84" rx="3" ry="3" style="stroke:#038048;stroke-width:1.0;"/><text fill="#000000" font-family="sans-serif" font-size="14" lengthAdjust="spacing" textLength="209" x="441.5" y="1148.5889">prepare_for_next_game(): void</text><ellipse cx="432.5" cy="1161.5391" fill="#84BE84" rx="3" ry="3" style="stroke:#038048;stroke-width:1.0;"/><text fill="#000000" font-family="sans-serif" font-size="14" lengthAdjust="spacing" textLength="339" x="441.5" y="1164.8857">select_move(opponent_history: list[Move]): Move</text></g><!--class SimulatedPlayer--><g id="elem_SimulatedPlayer"><rect codeLine="73" fill="#F1F1F1" height="113.1875" id="SimulatedPlayer" rx="2.5" ry="2.5" style="stroke:#181818;stroke-width:0.5;" width="365" x="821.5" y="1059"/><ellipse cx="945.25" cy="1075" fill="#ADD1B2" rx="11" ry="11" style="stroke:#181818;stroke-width:1.0;"/><path d="M948.2188,1080.6406 Q947.6406,1080.9375 947,1081.0781 Q946.3594,1081.2344 945.6563,1081.2344 Q943.1563,1081.2344 941.8281,1079.5938 Q940.5156,1077.9375 940.5156,1074.8125 Q940.5156,1071.6875 941.8281,1070.0313 Q943.1563,1068.375 945.6563,1068.375 Q946.3594,1068.375 947,1068.5313 Q947.6563,1068.6875 948.2188,1068.9844 L948.2188,1071.7031 Q947.5938,1071.125 947,1070.8594 Q946.4063,1070.5781 945.7813,1070.5781 Q944.4375,1070.5781 943.75,1071.6563 Q943.0625,1072.7188 943.0625,1074.8125 Q943.0625,1076.9063 943.75,1077.9844 Q944.4375,1079.0469 945.7813,1079.0469 Q946.4063,1079.0469 947,1078.7813 Q947.5938,1078.5 948.2188,1077.9219 L948.2188,1080.6406 Z " fill="#000000"/><text fill="#000000" font-family="sans-serif" font-size="14" lengthAdjust="spacing" textLength="109" x="965.75" y="1079.8467">SimulatedPlayer</text><line style="stroke:#181818;stroke-width:0.5;" x1="822.5" x2="1185.5" y1="1091" y2="1091"/><rect fill="none" height="6" style="stroke:#C82930;stroke-width:1.0;" width="6" x="829.5" y="1101.6484"/><text fill="#000000" font-family="sans-serif" font-size="14" lengthAdjust="spacing" textLength="215" x="841.5" y="1107.9951">model: RandomForestClassifier</text><rect fill="none" height="6" style="stroke:#C82930;stroke-width:1.0;" width="6" x="829.5" y="1117.9453"/><text fill="#000000" font-family="sans-serif" font-size="14" lengthAdjust="spacing" textLength="161" x="841.5" y="1124.292">encoder: LabelEncoder</text><line style="stroke:#181818;stroke-width:0.5;" x1="822.5" x2="1185.5" y1="1131.5938" y2="1131.5938"/><ellipse cx="832.5" cy="1145.2422" fill="#84BE84" rx="3" ry="3" style="stroke:#038048;stroke-width:1.0;"/><text fill="#000000" font-family="sans-serif" font-size="14" lengthAdjust="spacing" textLength="339" x="841.5" y="1148.5889">select_move(opponent_history: list[Move]): Move</text><rect fill="#F24D5C" height="6" style="stroke:#C82930;stroke-width:1.0;" width="6" x="829.5" y="1158.5391"/><text fill="#000000" font-family="sans-serif" font-size="14" lengthAdjust="spacing" textLength="305" x="841.5" y="1164.8857">transform_history(history: list[Move]): list[int]</text></g><!--class Move--><g id="elem_Move"><rect codeLine="95" fill="#F1F1F1" height="96.8906" id="Move" rx="2.5" ry="2.5" style="stroke:#181818;stroke-width:0.5;" width="99" x="1221.5" y="1067"/><ellipse cx="1250" cy="1083" fill="#EB937F" rx="11" ry="11" style="stroke:#181818;stroke-width:1.0;"/><path d="M1254.1094,1089 L1246.3906,1089 L1246.3906,1076.6094 L1254.1094,1076.6094 L1254.1094,1078.7656 L1248.8438,1078.7656 L1248.8438,1081.4375 L1253.6094,1081.4375 L1253.6094,1083.5938 L1248.8438,1083.5938 L1248.8438,1086.8438 L1254.1094,1086.8438 L1254.1094,1089 Z " fill="#000000"/><text fill="#000000" font-family="sans-serif" font-size="14" lengthAdjust="spacing" textLength="37" x="1267" y="1087.8467">Move</text><line style="stroke:#181818;stroke-width:0.5;" x1="1222.5" x2="1319.5" y1="1099" y2="1099"/><text fill="#000000" font-family="sans-serif" font-size="14" lengthAdjust="spacing" textLength="87" x="1227.5" y="1115.9951">COOPERATE</text><text fill="#000000" font-family="sans-serif" font-size="14" lengthAdjust="spacing" textLength="56" x="1227.5" y="1132.292">DEFECT</text><text fill="#000000" font-family="sans-serif" font-size="14" lengthAdjust="spacing" textLength="48" x="1227.5" y="1148.5889">EMPTY</text><line style="stroke:#181818;stroke-width:0.5;" x1="1222.5" x2="1319.5" y1="1155.8906" y2="1155.8906"/></g><!--class GameState--><g id="elem_GameState"><rect codeLine="101" fill="#F1F1F1" height="96.8906" id="GameState" rx="2.5" ry="2.5" style="stroke:#181818;stroke-width:0.5;" width="109" x="694.5" y="534"/><ellipse cx="709.5" cy="550" fill="#EB937F" rx="11" ry="11" style="stroke:#181818;stroke-width:1.0;"/><path d="M713.6094,556 L705.8906,556 L705.8906,543.6094 L713.6094,543.6094 L713.6094,545.7656 L708.3438,545.7656 L708.3438,548.4375 L713.1094,548.4375 L713.1094,550.5938 L708.3438,550.5938 L708.3438,553.8438 L713.6094,553.8438 L713.6094,556 Z " fill="#000000"/><text fill="#000000" font-family="sans-serif" font-size="14" lengthAdjust="spacing" textLength="77" x="723.5" y="554.8467">GameState</text><line style="stroke:#181818;stroke-width:0.5;" x1="695.5" x2="802.5" y1="566" y2="566"/><text fill="#000000" font-family="sans-serif" font-size="14" lengthAdjust="spacing" textLength="77" x="700.5" y="582.9951">INITIALIZED</text><text fill="#000000" font-family="sans-serif" font-size="14" lengthAdjust="spacing" textLength="64" x="700.5" y="599.292">RUNNING</text><text fill="#000000" font-family="sans-serif" font-size="14" lengthAdjust="spacing" textLength="63" x="700.5" y="615.5889">FINISHED</text><line style="stroke:#181818;stroke-width:0.5;" x1="695.5" x2="802.5" y1="622.8906" y2="622.8906"/></g><!--class GameConfig--><g id="elem_GameConfig"><rect codeLine="107" fill="#F1F1F1" height="129.4844" id="GameConfig" rx="2.5" ry="2.5" style="stroke:#181818;stroke-width:0.5;" width="195" x="838.5" y="518"/><ellipse cx="889.25" cy="534" fill="#B4A7E5" rx="11" ry="11" style="stroke:#181818;stroke-width:1.0;"/><path d="M885.1719,529.7656 L885.1719,527.6094 L892.5625,527.6094 L892.5625,529.7656 L890.0938,529.7656 L890.0938,537.8438 L892.5625,537.8438 L892.5625,540 L885.1719,540 L885.1719,537.8438 L887.6406,537.8438 L887.6406,529.7656 L885.1719,529.7656 Z " fill="#000000"/><text fill="#000000" font-family="sans-serif" font-size="14" font-style="italic" lengthAdjust="spacing" textLength="85" x="909.75" y="538.8467">GameConfig</text><line style="stroke:#181818;stroke-width:0.5;" x1="839.5" x2="1032.5" y1="550" y2="550"/><ellipse cx="849.5" cy="563.6484" fill="none" rx="3" ry="3" style="stroke:#038048;stroke-width:1.0;"/><text fill="#000000" font-family="sans-serif" font-size="14" lengthAdjust="spacing" textLength="100" x="858.5" y="566.9951">player1: Player</text><ellipse cx="849.5" cy="579.9453" fill="none" rx="3" ry="3" style="stroke:#038048;stroke-width:1.0;"/><text fill="#000000" font-family="sans-serif" font-size="14" lengthAdjust="spacing" textLength="100" x="858.5" y="583.292">player2: Player</text><ellipse cx="849.5" cy="596.2422" fill="none" rx="3" ry="3" style="stroke:#038048;stroke-width:1.0;"/><text fill="#000000" font-family="sans-serif" font-size="14" lengthAdjust="spacing" textLength="113" x="858.5" y="599.5889">num_rounds: int</text><ellipse cx="849.5" cy="612.5391" fill="none" rx="3" ry="3" style="stroke:#038048;stroke-width:1.0;"/><text fill="#000000" font-family="sans-serif" font-size="14" lengthAdjust="spacing" textLength="169" x="858.5" y="615.8857">mistake_probability: float</text><ellipse cx="849.5" cy="628.8359" fill="none" rx="3" ry="3" style="stroke:#038048;stroke-width:1.0;"/><text fill="#000000" font-family="sans-serif" font-size="14" lengthAdjust="spacing" textLength="154" x="858.5" y="632.1826">score_map: ScoreMap</text><line style="stroke:#181818;stroke-width:0.5;" x1="839.5" x2="1032.5" y1="639.4844" y2="639.4844"/></g><!--class Game--><g id="elem_Game"><rect codeLine="115" fill="#F1F1F1" height="243.5625" id="Game" rx="2.5" ry="2.5" style="stroke:#181818;stroke-width:0.5;" width="435" x="693.5" y="214"/><ellipse cx="886.25" cy="230" fill="#ADD1B2" rx="11" ry="11" style="stroke:#181818;stroke-width:1.0;"/><path d="M889.2188,235.6406 Q888.6406,235.9375 888,236.0781 Q887.3594,236.2344 886.6563,236.2344 Q884.1563,236.2344 882.8281,234.5938 Q881.5156,232.9375 881.5156,229.8125 Q881.5156,226.6875 882.8281,225.0313 Q884.1563,223.375 886.6563,223.375 Q887.3594,223.375 888,223.5313 Q888.6563,223.6875 889.2188,223.9844 L889.2188,226.7031 Q888.5938,226.125 888,225.8594 Q887.4063,225.5781 886.7813,225.5781 Q885.4375,225.5781 884.75,226.6563 Q884.0625,227.7188 884.0625,229.8125 Q884.0625,231.9063 884.75,232.9844 Q885.4375,234.0469 886.7813,234.0469 Q887.4063,234.0469 888,233.7813 Q888.5938,233.5 889.2188,232.9219 L889.2188,235.6406 Z " fill="#000000"/><text fill="#000000" font-family="sans-serif" font-size="14" lengthAdjust="spacing" textLength="41" x="906.75" y="234.8467">Game</text><line style="stroke:#181818;stroke-width:0.5;" x1="694.5" x2="1127.5" y1="246" y2="246"/><rect fill="none" height="6" style="stroke:#C82930;stroke-width:1.0;" width="6" x="701.5" y="256.6484"/><text fill="#000000" font-family="sans-serif" font-size="14" lengthAdjust="spacing" textLength="68" x="713.5" y="262.9951">p1: Player</text><rect fill="none" height="6" style="stroke:#C82930;stroke-width:1.0;" width="6" x="701.5" y="272.9453"/><text fill="#000000" font-family="sans-serif" font-size="14" lengthAdjust="spacing" textLength="68" x="713.5" y="279.292">p2: Player</text><rect fill="none" height="6" style="stroke:#C82930;stroke-width:1.0;" width="6" x="701.5" y="289.2422"/><text fill="#000000" font-family="sans-serif" font-size="14" lengthAdjust="spacing" textLength="113" x="713.5" y="295.5889">num_rounds: int</text><rect fill="none" height="6" style="stroke:#C82930;stroke-width:1.0;" width="6" x="701.5" y="305.5391"/><text fill="#000000" font-family="sans-serif" font-size="14" lengthAdjust="spacing" textLength="169" x="713.5" y="311.8857">mistake_probability: float</text><rect fill="none" height="6" style="stroke:#C82930;stroke-width:1.0;" width="6" x="701.5" y="321.8359"/><text fill="#000000" font-family="sans-serif" font-size="14" lengthAdjust="spacing" textLength="154" x="713.5" y="328.1826">score_map: ScoreMap</text><rect fill="none" height="6" style="stroke:#C82930;stroke-width:1.0;" width="6" x="701.5" y="338.1328"/><text fill="#000000" font-family="sans-serif" font-size="14" lengthAdjust="spacing" textLength="121" x="713.5" y="344.4795">state: GameState</text><line style="stroke:#181818;stroke-width:0.5;" x1="694.5" x2="1127.5" y1="351.7813" y2="351.7813"/><ellipse cx="704.5" cy="365.4297" fill="#84BE84" rx="3" ry="3" style="stroke:#038048;stroke-width:1.0;"/><text fill="#000000" font-family="sans-serif" font-size="14" lengthAdjust="spacing" textLength="183" x="713.5" y="368.7764">get_scores(): tuple[int, int]</text><ellipse cx="704.5" cy="381.7266" fill="#84BE84" rx="3" ry="3" style="stroke:#038048;stroke-width:1.0;"/><text fill="#000000" font-family="sans-serif" font-size="14" lengthAdjust="spacing" textLength="127" x="713.5" y="385.0732">plot_scores(): void</text><ellipse cx="704.5" cy="398.0234" fill="#84BE84" rx="3" ry="3" style="stroke:#038048;stroke-width:1.0;"/><text fill="#000000" font-family="sans-serif" font-size="14" lengthAdjust="spacing" textLength="409" x="713.5" y="401.3701">run(callback: Optional[Callable[[Player, Player], None]]): void</text><rect fill="#F24D5C" height="6" style="stroke:#C82930;stroke-width:1.0;" width="6" x="701.5" y="411.3203"/><text fill="#000000" font-family="sans-serif" font-size="14" lengthAdjust="spacing" textLength="122" x="713.5" y="417.667">play_round(): void</text><rect fill="#F24D5C" height="6" style="stroke:#C82930;stroke-width:1.0;" width="6" x="701.5" y="427.6172"/><text fill="#000000" font-family="sans-serif" font-size="14" lengthAdjust="spacing" textLength="228" x="713.5" y="433.9639">apply_mistake(move: Move): void</text><rect fill="#F24D5C" height="6" style="stroke:#C82930;stroke-width:1.0;" width="6" x="701.5" y="443.9141"/><text fill="#000000" font-family="sans-serif" font-size="14" lengthAdjust="spacing" textLength="344" x="713.5" y="450.2607">update_scores(move1: Move, move2: Move): void</text></g><!--class Tournament--><g id="elem_Tournament"><rect codeLine="131" fill="#F1F1F1" height="113.1875" id="Tournament" rx="2.5" ry="2.5" style="stroke:#181818;stroke-width:0.5;" width="435" x="566.5" y="41"/><ellipse cx="737.25" cy="57" fill="#ADD1B2" rx="11" ry="11" style="stroke:#181818;stroke-width:1.0;"/><path d="M740.2188,62.6406 Q739.6406,62.9375 739,63.0781 Q738.3594,63.2344 737.6563,63.2344 Q735.1563,63.2344 733.8281,61.5938 Q732.5156,59.9375 732.5156,56.8125 Q732.5156,53.6875 733.8281,52.0313 Q735.1563,50.375 737.6563,50.375 Q738.3594,50.375 739,50.5313 Q739.6563,50.6875 740.2188,50.9844 L740.2188,53.7031 Q739.5938,53.125 739,52.8594 Q738.4063,52.5781 737.7813,52.5781 Q736.4375,52.5781 735.75,53.6563 Q735.0625,54.7188 735.0625,56.8125 Q735.0625,58.9063 735.75,59.9844 Q736.4375,61.0469 737.7813,61.0469 Q738.4063,61.0469 739,60.7813 Q739.5938,60.5 740.2188,59.9219 L740.2188,62.6406 Z " fill="#000000"/><text fill="#000000" font-family="sans-serif" font-size="14" lengthAdjust="spacing" textLength="85" x="757.75" y="61.8467">Tournament</text><line style="stroke:#181818;stroke-width:0.5;" x1="567.5" x2="1000.5" y1="73" y2="73"/><rect fill="none" height="6" style="stroke:#C82930;stroke-width:1.0;" width="6" x="574.5" y="83.6484"/><text fill="#000000" font-family="sans-serif" font-size="14" lengthAdjust="spacing" textLength="128" x="586.5" y="89.9951">players: list[Player]</text><rect fill="none" height="6" style="stroke:#C82930;stroke-width:1.0;" width="6" x="574.5" y="99.9453"/><text fill="#000000" font-family="sans-serif" font-size="14" lengthAdjust="spacing" textLength="151" x="586.5" y="106.292">rounds_per_game: int</text><line style="stroke:#181818;stroke-width:0.5;" x1="567.5" x2="1000.5" y1="113.5938" y2="113.5938"/><ellipse cx="577.5" cy="127.2422" fill="#84BE84" rx="3" ry="3" style="stroke:#038048;stroke-width:1.0;"/><text fill="#000000" font-family="sans-serif" font-size="14" lengthAdjust="spacing" textLength="382" x="586.5" y="130.5889">Tournament(players: list[Player], rounds_per_game: int)</text><ellipse cx="577.5" cy="143.5391" fill="#84BE84" rx="3" ry="3" style="stroke:#038048;stroke-width:1.0;"/><text fill="#000000" font-family="sans-serif" font-size="14" lengthAdjust="spacing" textLength="409" x="586.5" y="146.8857">run(callback: Optional[Callable[[Player, Player], None]]): void</text></g><!--reverse link Player to CooperativePlayer--><g id="link_Player_CooperativePlayer"><path codeLine="81" d="M597.3601,941.6996 C482.7001,992.0696 357.9,1046.89 274.72,1083.43 " fill="none" id="Player-backto-CooperativePlayer" style="stroke:#181818;stroke-width:1.0;"/><polygon fill="none" points="613.84,934.46,594.9469,936.2063,599.7733,947.1929,613.84,934.46" style="stroke:#181818;stroke-width:1.0;"/></g><!--reverse link Player to DetectivePlayer--><g id="link_Player_DetectivePlayer"><path codeLine="85" d="M678.784,1013.5626 C663.024,1034.8326 658.39,1041.09 645.13,1058.98 " fill="none" id="Player-backto-DetectivePlayer" style="stroke:#181818;stroke-width:1.0;"/><polygon fill="none" points="689.5,999.1,673.9631,1009.9906,683.6048,1017.1346,689.5,999.1" style="stroke:#181818;stroke-width:1.0;"/></g><!--reverse link Player to SimulatedPlayer--><g id="link_Player_SimulatedPlayer"><path codeLine="91" d="M923.4976,1013.1931 C940.3976,1034.4631 945.67,1041.09 959.88,1058.98 " fill="none" id="Player-backto-SimulatedPlayer" style="stroke:#181818;stroke-width:1.0;"/><polygon fill="none" points="912.3,999.1,918.7999,1016.9256,928.1953,1009.4605,912.3,999.1" style="stroke:#181818;stroke-width:1.0;"/></g><!--link Player to Move--><g id="link_Player_Move"><path codeLine="93" d="M980.16,935.39 C1051.97,970.06 1133.81,1013.1 1204,1059 C1209.81,1062.8 1210.927,1063.3942 1216.677,1067.7742 " fill="none" id="Player-to-Move" style="stroke:#181818;stroke-width:1.0;stroke-dasharray:7.0,7.0;"/><polygon fill="#181818" points="1221.45,1071.41,1216.7144,1062.7744,1217.4725,1068.3802,1211.8667,1069.1383,1221.45,1071.41" style="stroke:#181818;stroke-width:1.0;"/></g><!--link GameConfig to Player--><g id="link_GameConfig_Player"><path codeLine="139" d="M903.06,647.13 C893.67,665.27 885.7894,680.4922 874.9594,701.4022 " fill="none" id="GameConfig-to-Player" style="stroke:#181818;stroke-width:1.0;"/><polygon fill="#181818" points="872.2,706.73,879.891,700.5779,874.4995,702.2902,872.7873,696.8987,872.2,706.73" style="stroke:#181818;stroke-width:1.0;"/></g><!--link Game to GameConfig--><g id="link_Game_GameConfig"><path codeLine="140" d="M923.39,458.18 C925.5,478.83 927.0095,493.5511 928.8895,511.9311 " fill="none" id="Game-to-GameConfig" style="stroke:#181818;stroke-width:1.0;stroke-dasharray:7.0,7.0;"/><polygon fill="#181818" points="929.5,517.9,932.5635,508.5397,928.9912,512.926,924.605,509.3537,929.5,517.9" style="stroke:#181818;stroke-width:1.0;"/></g><!--link Game to GameState--><g id="link_Game_GameState"><path codeLine="141" d="M830.71,458.18 C812.89,485.07 798.3334,507.0378 783.8734,528.8678 " fill="none" id="Game-to-GameState" style="stroke:#181818;stroke-width:1.0;stroke-dasharray:7.0,7.0;"/><polygon fill="#181818" points="780.56,533.87,788.8648,528.5757,783.3212,529.7015,782.1953,524.1579,780.56,533.87" style="stroke:#181818;stroke-width:1.0;"/></g><!--reverse link Tournament to Player--><g id="link_Tournament_Player"><path codeLine="142" d="M708.1724,162.726 C691.8124,180.056 684.77,191.78 676,214 C605.35,393.01 626.14,461.4 677,647 C682.53,667.19 690.58,687.42 699.94,706.9 " fill="none" id="Tournament-backto-Player" style="stroke:#181818;stroke-width:1.0;"/><polygon fill="none" points="716.41,154,709.3826,155.6171,708.1724,162.726,715.1999,161.1088,716.41,154" style="stroke:#181818;stroke-width:1.0;"/></g><!--reverse link Tournament to Game--><g id="link_Tournament_Game"><path codeLine="143" d="M819.6187,164.8213 C829.2987,182.8413 834.76,193.02 845.96,213.88 " fill="none" id="Tournament-backto-Game" style="stroke:#181818;stroke-width:1.0;"/><polygon fill="#181818" points="813.94,154.25,813.2556,161.4285,819.6187,164.8213,820.3031,157.6427,813.94,154.25" style="stroke:#181818;stroke-width:1.0;"/></g><!--SRC=[jLTTRzem57tdL_WDkf5AxMCqLMeXKAGM46IJkWf59XXgrR4jnq53NV_xRX8FdCHKIALzmlUU7DzltqeSl-8DGQcaX2KuVY4AlRKG_CKCfocQChpRY_A_xqY9ZA-YD1QA-8XoRQcqq9YvLJnBeWrEI5fN969BeXUQQg5sFdg4qtrvi305um4qpuzD50Tw7wLQMR8uKufm7LLlOV3ZERzguO3MBYkmOB8DXT2KbAN1BJiw92MwS-6ZhQ0hIvx95TQaOaVdm70KRmMx8mMOKSQlYPUAI0nshuMAEFcZYs1tN3Xgmf4wj6zu2V73iNv7AM4aBf4T8QNWUMmS4RmmCSW9tbjMwVI4a4HXJRV4KKMVe6-R2uAD01YDA-pjJ_2twpVCC5-9vEluXofRROWw_mKbVPzee735tqChiWQTZvP2i5FgzzJwEaDUGwe7GeLOVrtWWNz3jvHlFhhBGuF9R3Zw5KJJsUJkzcxqC0gV3kFhh0RDQI8PqO8xxN3Ec_RHZBLFpjbPVGYsHEt6-gLVb9PGJbTu6S3pttwV9PX_LIT1UZ86ytZbwAH4h0ZppQo0OYAfxkKVqJKboi8H7WDI-UW1BmaBobFhawrJKiF8vYbaETa_BUxFgc-PyT2uzEElvpLdjWc6ZQcENGV0dfeETMNeDIoepIp7zxMMTI2ETRS3MkixbxlEgdO0hG9iU5MhdqhWBozlhAuci2WLHwl6UfF9D9ZTXi5UqWy6GI_S7uF7QVXavxHW6KAtppNSQb6DngDmTFim-XtqzxBPp_5uD1xkpmC0pUyDm112qH2rnZ4fM7k2h-ccyfxBmfah7raHi3NN3as-4nOBJdCfX0h3hoIIIYpnaZAgePJNJ63Ts0eJBCr6-8XbSml9pQsqgspQ2C9hX_2OUTufvdb7pJFQF37-8KVs8DWGiuKMAvhEe4BphksYsXegcR21jPTOPRmJOyQMiEBxQ28r5Hopvnw8y18Odqk7kyRnHHUDOUGi5dKchyXW6ObEKucbPBl8HEI3bTRxlz8QWtFaLGdj5ly4N3U_gsGo59dALtokg_aih4_DS3E-MFeoWn6CjUBvivwVCam7sewJgkjak3Xpe8sdLdDvterTaaKTvwFY06dAoqhAnLQm1CmVYyZIVCkdCVnilRV-0G00]--></g></svg>